<mxfile host="Electron" modified="2024-03-06T23:47:05.025Z" agent="Mozilla/5.0 (X11; Linux x86_64) AppleWebKit/537.36 (KHTML, like Gecko) draw.io/23.0.2 Chrome/120.0.6099.291 Electron/28.2.6 Safari/537.36" etag="D2Cyz2F2HqIkuGW-72jH" version="23.0.2" type="device">
  <diagram name="Page-1" id="TzWK0vQO59YtCly4aUaA">
    <mxGraphModel dx="2790" dy="1455" grid="1" gridSize="10" guides="1" tooltips="1" connect="1" arrows="1" fold="1" page="1" pageScale="1" pageWidth="850" pageHeight="1100" math="0" shadow="0">
      <root>
        <mxCell id="0" />
        <mxCell id="1" parent="0" />
        <mxCell id="i_I40cN8ErkJ-4RmTXFp-1" value="" style="rounded=0;whiteSpace=wrap;html=1;" vertex="1" parent="1">
          <mxGeometry y="435.25" width="210" height="170" as="geometry" />
        </mxCell>
        <mxCell id="i_I40cN8ErkJ-4RmTXFp-2" style="edgeStyle=orthogonalEdgeStyle;rounded=0;orthogonalLoop=1;jettySize=auto;html=1;entryX=0.5;entryY=1;entryDx=0;entryDy=0;" edge="1" parent="1" source="i_I40cN8ErkJ-4RmTXFp-6" target="i_I40cN8ErkJ-4RmTXFp-26">
          <mxGeometry relative="1" as="geometry">
            <Array as="points">
              <mxPoint x="1493" y="825.5" />
              <mxPoint x="1366" y="825.5" />
            </Array>
          </mxGeometry>
        </mxCell>
        <mxCell id="i_I40cN8ErkJ-4RmTXFp-3" style="edgeStyle=orthogonalEdgeStyle;rounded=0;orthogonalLoop=1;jettySize=auto;html=1;entryX=0.5;entryY=1;entryDx=0;entryDy=0;" edge="1" parent="1" source="i_I40cN8ErkJ-4RmTXFp-6" target="i_I40cN8ErkJ-4RmTXFp-27">
          <mxGeometry relative="1" as="geometry">
            <Array as="points">
              <mxPoint x="1493" y="825.5" />
              <mxPoint x="1230" y="825.5" />
            </Array>
          </mxGeometry>
        </mxCell>
        <mxCell id="i_I40cN8ErkJ-4RmTXFp-4" style="edgeStyle=orthogonalEdgeStyle;rounded=0;orthogonalLoop=1;jettySize=auto;html=1;entryX=0.5;entryY=1;entryDx=0;entryDy=0;" edge="1" parent="1" source="i_I40cN8ErkJ-4RmTXFp-6" target="i_I40cN8ErkJ-4RmTXFp-25">
          <mxGeometry relative="1" as="geometry">
            <Array as="points">
              <mxPoint x="1492" y="825.5" />
              <mxPoint x="1504" y="825.5" />
            </Array>
          </mxGeometry>
        </mxCell>
        <mxCell id="i_I40cN8ErkJ-4RmTXFp-5" style="edgeStyle=orthogonalEdgeStyle;rounded=0;orthogonalLoop=1;jettySize=auto;html=1;entryX=0.5;entryY=1;entryDx=0;entryDy=0;" edge="1" parent="1" source="i_I40cN8ErkJ-4RmTXFp-6" target="i_I40cN8ErkJ-4RmTXFp-106">
          <mxGeometry relative="1" as="geometry">
            <Array as="points">
              <mxPoint x="1493" y="825.5" />
              <mxPoint x="1650" y="825.5" />
            </Array>
          </mxGeometry>
        </mxCell>
        <mxCell id="i_I40cN8ErkJ-4RmTXFp-6" value="Neural Network model" style="rounded=0;whiteSpace=wrap;html=1;" vertex="1" parent="1">
          <mxGeometry x="1432.5" y="835.5" width="120" height="60" as="geometry" />
        </mxCell>
        <mxCell id="i_I40cN8ErkJ-4RmTXFp-7" value="Layer" style="rounded=0;whiteSpace=wrap;html=1;" vertex="1" parent="1">
          <mxGeometry x="1210" y="130.75" width="120" height="60" as="geometry" />
        </mxCell>
        <mxCell id="i_I40cN8ErkJ-4RmTXFp-8" value="Weights" style="rounded=0;whiteSpace=wrap;html=1;" vertex="1" parent="1">
          <mxGeometry x="1210" y="258.25" width="120" height="60" as="geometry" />
        </mxCell>
        <mxCell id="i_I40cN8ErkJ-4RmTXFp-9" value="" style="shape=flexArrow;endArrow=classic;html=1;rounded=0;" edge="1" parent="1">
          <mxGeometry width="50" height="50" relative="1" as="geometry">
            <mxPoint x="1562.5" y="865.1599999999999" as="sourcePoint" />
            <mxPoint x="1652.5" y="865.1599999999999" as="targetPoint" />
          </mxGeometry>
        </mxCell>
        <mxCell id="i_I40cN8ErkJ-4RmTXFp-10" value="" style="shape=flexArrow;endArrow=classic;html=1;rounded=0;" edge="1" parent="1">
          <mxGeometry width="50" height="50" relative="1" as="geometry">
            <mxPoint x="1350" y="160.40999999999997" as="sourcePoint" />
            <mxPoint x="1440" y="160.40999999999997" as="targetPoint" />
          </mxGeometry>
        </mxCell>
        <mxCell id="i_I40cN8ErkJ-4RmTXFp-11" value="dataflow&lt;br&gt;In/Out" style="rounded=0;whiteSpace=wrap;html=1;" vertex="1" parent="1">
          <mxGeometry x="1450" y="130.75" width="120" height="60" as="geometry" />
        </mxCell>
        <mxCell id="i_I40cN8ErkJ-4RmTXFp-12" value="Trainable Layers" style="rounded=0;whiteSpace=wrap;html=1;" vertex="1" parent="1">
          <mxGeometry x="1662.5" y="835.5" width="120" height="60" as="geometry" />
        </mxCell>
        <mxCell id="i_I40cN8ErkJ-4RmTXFp-13" value="At end a layer is like a mathematical function: L: X -&amp;gt; Y" style="text;html=1;strokeColor=none;fillColor=none;align=center;verticalAlign=middle;whiteSpace=wrap;rounded=0;" vertex="1" parent="1">
          <mxGeometry x="1210" y="210.75" width="335" height="30" as="geometry" />
        </mxCell>
        <mxCell id="i_I40cN8ErkJ-4RmTXFp-14" value="Activation Function" style="rounded=0;whiteSpace=wrap;html=1;" vertex="1" parent="1">
          <mxGeometry x="1640" y="130.75" width="120" height="60" as="geometry" />
        </mxCell>
        <mxCell id="i_I40cN8ErkJ-4RmTXFp-15" value="" style="shape=flexArrow;endArrow=classic;html=1;rounded=0;" edge="1" parent="1">
          <mxGeometry width="50" height="50" relative="1" as="geometry">
            <mxPoint x="1780" y="160.40999999999997" as="sourcePoint" />
            <mxPoint x="1870" y="160.40999999999997" as="targetPoint" />
          </mxGeometry>
        </mxCell>
        <mxCell id="i_I40cN8ErkJ-4RmTXFp-16" value="Non-Trainable Layer" style="rounded=0;whiteSpace=wrap;html=1;" vertex="1" parent="1">
          <mxGeometry x="1890" y="130.75" width="120" height="60" as="geometry" />
        </mxCell>
        <mxCell id="i_I40cN8ErkJ-4RmTXFp-17" style="edgeStyle=orthogonalEdgeStyle;rounded=0;orthogonalLoop=1;jettySize=auto;html=1;entryX=0.5;entryY=1;entryDx=0;entryDy=0;" edge="1" parent="1" source="i_I40cN8ErkJ-4RmTXFp-19" target="i_I40cN8ErkJ-4RmTXFp-8">
          <mxGeometry relative="1" as="geometry" />
        </mxCell>
        <mxCell id="i_I40cN8ErkJ-4RmTXFp-18" style="edgeStyle=orthogonalEdgeStyle;rounded=0;orthogonalLoop=1;jettySize=auto;html=1;entryX=0.5;entryY=1;entryDx=0;entryDy=0;" edge="1" parent="1" source="i_I40cN8ErkJ-4RmTXFp-19" target="i_I40cN8ErkJ-4RmTXFp-79">
          <mxGeometry relative="1" as="geometry">
            <Array as="points">
              <mxPoint x="1270" y="335.5" />
              <mxPoint x="1410" y="335.5" />
            </Array>
          </mxGeometry>
        </mxCell>
        <mxCell id="i_I40cN8ErkJ-4RmTXFp-19" value="Trainable Layer" style="rounded=0;whiteSpace=wrap;html=1;" vertex="1" parent="1">
          <mxGeometry x="1210" y="348.25" width="120" height="60" as="geometry" />
        </mxCell>
        <mxCell id="i_I40cN8ErkJ-4RmTXFp-20" value="" style="shape=flexArrow;endArrow=classic;html=1;rounded=0;" edge="1" parent="1">
          <mxGeometry width="50" height="50" relative="1" as="geometry">
            <mxPoint x="1350" y="377.90999999999997" as="sourcePoint" />
            <mxPoint x="1440" y="377.90999999999997" as="targetPoint" />
          </mxGeometry>
        </mxCell>
        <mxCell id="i_I40cN8ErkJ-4RmTXFp-21" value="Layer" style="rounded=0;whiteSpace=wrap;html=1;" vertex="1" parent="1">
          <mxGeometry x="1460" y="348.25" width="120" height="60" as="geometry" />
        </mxCell>
        <mxCell id="i_I40cN8ErkJ-4RmTXFp-22" value="Non-Trainable Layer" style="rounded=0;whiteSpace=wrap;html=1;" vertex="1" parent="1">
          <mxGeometry x="1210" y="453.25" width="120" height="60" as="geometry" />
        </mxCell>
        <mxCell id="i_I40cN8ErkJ-4RmTXFp-23" value="" style="shape=flexArrow;endArrow=classic;html=1;rounded=0;" edge="1" parent="1">
          <mxGeometry width="50" height="50" relative="1" as="geometry">
            <mxPoint x="1350" y="482.90999999999997" as="sourcePoint" />
            <mxPoint x="1440" y="482.90999999999997" as="targetPoint" />
          </mxGeometry>
        </mxCell>
        <mxCell id="i_I40cN8ErkJ-4RmTXFp-24" value="Layer" style="rounded=0;whiteSpace=wrap;html=1;" vertex="1" parent="1">
          <mxGeometry x="1460" y="453.25" width="120" height="60" as="geometry" />
        </mxCell>
        <mxCell id="i_I40cN8ErkJ-4RmTXFp-25" value="Linkedlist of Layers" style="rounded=0;whiteSpace=wrap;html=1;" vertex="1" parent="1">
          <mxGeometry x="1443.75" y="745.5" width="120" height="60" as="geometry" />
        </mxCell>
        <mxCell id="i_I40cN8ErkJ-4RmTXFp-26" value="Optimizer" style="rounded=0;whiteSpace=wrap;html=1;" vertex="1" parent="1">
          <mxGeometry x="1306.25" y="745.5" width="120" height="60" as="geometry" />
        </mxCell>
        <mxCell id="i_I40cN8ErkJ-4RmTXFp-27" value="Metrics" style="rounded=0;whiteSpace=wrap;html=1;" vertex="1" parent="1">
          <mxGeometry x="1170" y="745.5" width="120" height="60" as="geometry" />
        </mxCell>
        <mxCell id="i_I40cN8ErkJ-4RmTXFp-28" value="Weight" style="rounded=0;whiteSpace=wrap;html=1;" vertex="1" parent="1">
          <mxGeometry x="330" y="225.25" width="120" height="60" as="geometry" />
        </mxCell>
        <mxCell id="i_I40cN8ErkJ-4RmTXFp-29" style="edgeStyle=orthogonalEdgeStyle;rounded=0;orthogonalLoop=1;jettySize=auto;html=1;entryX=0.5;entryY=1;entryDx=0;entryDy=0;" edge="1" parent="1" source="i_I40cN8ErkJ-4RmTXFp-30" target="i_I40cN8ErkJ-4RmTXFp-41">
          <mxGeometry relative="1" as="geometry" />
        </mxCell>
        <mxCell id="i_I40cN8ErkJ-4RmTXFp-30" value="Matrix" style="rounded=0;whiteSpace=wrap;html=1;" vertex="1" parent="1">
          <mxGeometry x="570" y="225.25" width="120" height="60" as="geometry" />
        </mxCell>
        <mxCell id="i_I40cN8ErkJ-4RmTXFp-31" value="" style="shape=flexArrow;endArrow=classic;html=1;rounded=0;" edge="1" parent="1">
          <mxGeometry width="50" height="50" relative="1" as="geometry">
            <mxPoint x="460" y="255" as="sourcePoint" />
            <mxPoint x="560" y="254.90999999999997" as="targetPoint" />
          </mxGeometry>
        </mxCell>
        <mxCell id="i_I40cN8ErkJ-4RmTXFp-32" value="The weights can be thinked as matrices&amp;nbsp;" style="text;html=1;strokeColor=none;fillColor=none;align=center;verticalAlign=middle;whiteSpace=wrap;rounded=0;" vertex="1" parent="1">
          <mxGeometry x="330" y="300.25" width="335" height="30" as="geometry" />
        </mxCell>
        <mxCell id="i_I40cN8ErkJ-4RmTXFp-33" value="Input/Output data" style="rounded=0;whiteSpace=wrap;html=1;" vertex="1" parent="1">
          <mxGeometry x="330" y="335.25" width="120" height="60" as="geometry" />
        </mxCell>
        <mxCell id="i_I40cN8ErkJ-4RmTXFp-34" value="" style="shape=flexArrow;endArrow=classic;html=1;rounded=0;" edge="1" parent="1">
          <mxGeometry width="50" height="50" relative="1" as="geometry">
            <mxPoint x="460" y="364.90999999999997" as="sourcePoint" />
            <mxPoint x="560.3400000000001" y="364.90999999999997" as="targetPoint" />
          </mxGeometry>
        </mxCell>
        <mxCell id="i_I40cN8ErkJ-4RmTXFp-35" value="Matrice" style="rounded=0;whiteSpace=wrap;html=1;" vertex="1" parent="1">
          <mxGeometry x="570" y="335.25" width="120" height="60" as="geometry" />
        </mxCell>
        <mxCell id="i_I40cN8ErkJ-4RmTXFp-36" value="The inputs and outputs from any layer is a matrix" style="text;html=1;strokeColor=none;fillColor=none;align=center;verticalAlign=middle;whiteSpace=wrap;rounded=0;" vertex="1" parent="1">
          <mxGeometry x="330" y="405.25" width="345" height="30" as="geometry" />
        </mxCell>
        <mxCell id="i_I40cN8ErkJ-4RmTXFp-37" value="" style="shape=flexArrow;endArrow=classic;html=1;rounded=0;" edge="1" parent="1">
          <mxGeometry width="50" height="50" relative="1" as="geometry">
            <mxPoint x="100" y="475.25" as="sourcePoint" />
            <mxPoint x="160" y="475.25" as="targetPoint" />
          </mxGeometry>
        </mxCell>
        <mxCell id="i_I40cN8ErkJ-4RmTXFp-38" value="is a/an" style="text;html=1;strokeColor=none;fillColor=none;align=center;verticalAlign=middle;whiteSpace=wrap;rounded=0;" vertex="1" parent="1">
          <mxGeometry x="30" y="460.25" width="60" height="30" as="geometry" />
        </mxCell>
        <mxCell id="i_I40cN8ErkJ-4RmTXFp-39" value="have a/an" style="text;html=1;strokeColor=none;fillColor=none;align=center;verticalAlign=middle;whiteSpace=wrap;rounded=0;" vertex="1" parent="1">
          <mxGeometry x="30" y="535.25" width="60" height="30" as="geometry" />
        </mxCell>
        <mxCell id="i_I40cN8ErkJ-4RmTXFp-40" value="" style="endArrow=classic;html=1;rounded=0;" edge="1" parent="1">
          <mxGeometry width="50" height="50" relative="1" as="geometry">
            <mxPoint x="100" y="580.25" as="sourcePoint" />
            <mxPoint x="100" y="520.25" as="targetPoint" />
          </mxGeometry>
        </mxCell>
        <mxCell id="i_I40cN8ErkJ-4RmTXFp-41" value="2d - Array" style="rounded=0;whiteSpace=wrap;html=1;" vertex="1" parent="1">
          <mxGeometry x="570" y="135.25" width="120" height="60" as="geometry" />
        </mxCell>
        <mxCell id="i_I40cN8ErkJ-4RmTXFp-42" value="Matrices:" style="text;html=1;strokeColor=none;fillColor=none;align=center;verticalAlign=middle;whiteSpace=wrap;rounded=0;" vertex="1" parent="1">
          <mxGeometry x="490" y="105.25" width="60" height="30" as="geometry" />
        </mxCell>
        <mxCell id="i_I40cN8ErkJ-4RmTXFp-43" value="Layer:" style="text;html=1;strokeColor=none;fillColor=none;align=center;verticalAlign=middle;whiteSpace=wrap;rounded=0;" vertex="1" parent="1">
          <mxGeometry x="1360" y="89.5" width="60" height="30" as="geometry" />
        </mxCell>
        <mxCell id="i_I40cN8ErkJ-4RmTXFp-44" value="Dense" style="rounded=0;whiteSpace=wrap;html=1;" vertex="1" parent="1">
          <mxGeometry x="1210" y="553" width="120" height="60" as="geometry" />
        </mxCell>
        <mxCell id="i_I40cN8ErkJ-4RmTXFp-45" value="" style="shape=flexArrow;endArrow=classic;html=1;rounded=0;" edge="1" parent="1">
          <mxGeometry width="50" height="50" relative="1" as="geometry">
            <mxPoint x="1350" y="582.66" as="sourcePoint" />
            <mxPoint x="1440" y="582.66" as="targetPoint" />
          </mxGeometry>
        </mxCell>
        <mxCell id="i_I40cN8ErkJ-4RmTXFp-46" value="Trainable Layer" style="rounded=0;whiteSpace=wrap;html=1;" vertex="1" parent="1">
          <mxGeometry x="1460" y="553" width="120" height="60" as="geometry" />
        </mxCell>
        <mxCell id="i_I40cN8ErkJ-4RmTXFp-47" value="Activation Function" style="text;html=1;strokeColor=none;fillColor=none;align=center;verticalAlign=middle;whiteSpace=wrap;rounded=0;" vertex="1" parent="1">
          <mxGeometry x="1740" y="97.25" width="150" height="30" as="geometry" />
        </mxCell>
        <mxCell id="i_I40cN8ErkJ-4RmTXFp-48" value="Dense layers is the most common layer in neural network" style="text;html=1;strokeColor=none;fillColor=none;align=center;verticalAlign=middle;whiteSpace=wrap;rounded=0;" vertex="1" parent="1">
          <mxGeometry x="1210" y="633" width="335" height="30" as="geometry" />
        </mxCell>
        <mxCell id="i_I40cN8ErkJ-4RmTXFp-49" value="Models:" style="text;html=1;strokeColor=none;fillColor=none;align=center;verticalAlign=middle;whiteSpace=wrap;rounded=0;" vertex="1" parent="1">
          <mxGeometry x="1506.25" y="695.5" width="60" height="30" as="geometry" />
        </mxCell>
        <mxCell id="i_I40cN8ErkJ-4RmTXFp-50" value="Linear" style="rounded=0;whiteSpace=wrap;html=1;" vertex="1" parent="1">
          <mxGeometry x="1640" y="240.75" width="120" height="60" as="geometry" />
        </mxCell>
        <mxCell id="i_I40cN8ErkJ-4RmTXFp-51" value="" style="shape=flexArrow;endArrow=classic;html=1;rounded=0;" edge="1" parent="1">
          <mxGeometry width="50" height="50" relative="1" as="geometry">
            <mxPoint x="1780" y="270.40999999999997" as="sourcePoint" />
            <mxPoint x="1870" y="270.40999999999997" as="targetPoint" />
          </mxGeometry>
        </mxCell>
        <mxCell id="i_I40cN8ErkJ-4RmTXFp-52" value="Activation Function" style="rounded=0;whiteSpace=wrap;html=1;" vertex="1" parent="1">
          <mxGeometry x="1890" y="240.75" width="120" height="60" as="geometry" />
        </mxCell>
        <mxCell id="i_I40cN8ErkJ-4RmTXFp-53" value="Sigmoid" style="rounded=0;whiteSpace=wrap;html=1;" vertex="1" parent="1">
          <mxGeometry x="1640" y="326" width="120" height="60" as="geometry" />
        </mxCell>
        <mxCell id="i_I40cN8ErkJ-4RmTXFp-54" value="" style="shape=flexArrow;endArrow=classic;html=1;rounded=0;" edge="1" parent="1">
          <mxGeometry width="50" height="50" relative="1" as="geometry">
            <mxPoint x="1780" y="355.65999999999997" as="sourcePoint" />
            <mxPoint x="1870" y="355.65999999999997" as="targetPoint" />
          </mxGeometry>
        </mxCell>
        <mxCell id="i_I40cN8ErkJ-4RmTXFp-55" value="Activation Function" style="rounded=0;whiteSpace=wrap;html=1;" vertex="1" parent="1">
          <mxGeometry x="1890" y="326" width="120" height="60" as="geometry" />
        </mxCell>
        <mxCell id="i_I40cN8ErkJ-4RmTXFp-56" value="Relu" style="rounded=0;whiteSpace=wrap;html=1;" vertex="1" parent="1">
          <mxGeometry x="1640" y="411" width="120" height="60" as="geometry" />
        </mxCell>
        <mxCell id="i_I40cN8ErkJ-4RmTXFp-57" value="" style="shape=flexArrow;endArrow=classic;html=1;rounded=0;" edge="1" parent="1">
          <mxGeometry width="50" height="50" relative="1" as="geometry">
            <mxPoint x="1780" y="440.65999999999997" as="sourcePoint" />
            <mxPoint x="1870" y="440.65999999999997" as="targetPoint" />
          </mxGeometry>
        </mxCell>
        <mxCell id="i_I40cN8ErkJ-4RmTXFp-58" value="Activation Function" style="rounded=0;whiteSpace=wrap;html=1;" vertex="1" parent="1">
          <mxGeometry x="1890" y="411" width="120" height="60" as="geometry" />
        </mxCell>
        <mxCell id="i_I40cN8ErkJ-4RmTXFp-59" value="Hyperbolic Tangent" style="rounded=0;whiteSpace=wrap;html=1;" vertex="1" parent="1">
          <mxGeometry x="1640" y="500.75" width="120" height="60" as="geometry" />
        </mxCell>
        <mxCell id="i_I40cN8ErkJ-4RmTXFp-60" value="" style="shape=flexArrow;endArrow=classic;html=1;rounded=0;" edge="1" parent="1">
          <mxGeometry width="50" height="50" relative="1" as="geometry">
            <mxPoint x="1780" y="530.41" as="sourcePoint" />
            <mxPoint x="1870" y="530.41" as="targetPoint" />
          </mxGeometry>
        </mxCell>
        <mxCell id="i_I40cN8ErkJ-4RmTXFp-61" value="Activation Function" style="rounded=0;whiteSpace=wrap;html=1;" vertex="1" parent="1">
          <mxGeometry x="1890" y="500.75" width="120" height="60" as="geometry" />
        </mxCell>
        <mxCell id="i_I40cN8ErkJ-4RmTXFp-62" value="Since layers are functions we can use it to have the activation functions" style="text;html=1;strokeColor=none;fillColor=none;align=center;verticalAlign=middle;whiteSpace=wrap;rounded=0;" vertex="1" parent="1">
          <mxGeometry x="1660" y="205.5" width="335" height="30" as="geometry" />
        </mxCell>
        <mxCell id="i_I40cN8ErkJ-4RmTXFp-63" value="Optimizers:" style="text;html=1;strokeColor=none;fillColor=none;align=center;verticalAlign=middle;whiteSpace=wrap;rounded=0;" vertex="1" parent="1">
          <mxGeometry x="480" y="475.5" width="80" height="30" as="geometry" />
        </mxCell>
        <mxCell id="i_I40cN8ErkJ-4RmTXFp-64" style="edgeStyle=orthogonalEdgeStyle;rounded=0;orthogonalLoop=1;jettySize=auto;html=1;entryX=0.5;entryY=1;entryDx=0;entryDy=0;exitX=0.5;exitY=0;exitDx=0;exitDy=0;" edge="1" parent="1" source="i_I40cN8ErkJ-4RmTXFp-68" target="i_I40cN8ErkJ-4RmTXFp-67">
          <mxGeometry relative="1" as="geometry">
            <mxPoint x="580" y="553" as="targetPoint" />
            <Array as="points">
              <mxPoint x="400" y="565.5" />
            </Array>
          </mxGeometry>
        </mxCell>
        <mxCell id="i_I40cN8ErkJ-4RmTXFp-65" value="Back propagation algorithm" style="rounded=0;whiteSpace=wrap;html=1;" vertex="1" parent="1">
          <mxGeometry x="580" y="603" width="120" height="60" as="geometry" />
        </mxCell>
        <mxCell id="i_I40cN8ErkJ-4RmTXFp-66" value="Incharge to fit more the models with the data, in batches" style="text;html=1;strokeColor=none;fillColor=none;align=center;verticalAlign=middle;whiteSpace=wrap;rounded=0;" vertex="1" parent="1">
          <mxGeometry x="352.5" y="685.5" width="300" height="30" as="geometry" />
        </mxCell>
        <mxCell id="i_I40cN8ErkJ-4RmTXFp-67" value="Neural Network model" style="rounded=0;whiteSpace=wrap;html=1;" vertex="1" parent="1">
          <mxGeometry x="340" y="505.5" width="120" height="60" as="geometry" />
        </mxCell>
        <mxCell id="i_I40cN8ErkJ-4RmTXFp-68" value="Optimizer" style="rounded=0;whiteSpace=wrap;html=1;" vertex="1" parent="1">
          <mxGeometry x="340" y="603" width="120" height="60" as="geometry" />
        </mxCell>
        <mxCell id="i_I40cN8ErkJ-4RmTXFp-69" value="" style="shape=flexArrow;endArrow=classic;html=1;rounded=0;" edge="1" parent="1">
          <mxGeometry width="50" height="50" relative="1" as="geometry">
            <mxPoint x="475" y="632.66" as="sourcePoint" />
            <mxPoint x="565" y="632.66" as="targetPoint" />
          </mxGeometry>
        </mxCell>
        <mxCell id="i_I40cN8ErkJ-4RmTXFp-70" value="Gradient Descent (GD)" style="rounded=0;whiteSpace=wrap;html=1;" vertex="1" parent="1">
          <mxGeometry x="340" y="745.5" width="120" height="60" as="geometry" />
        </mxCell>
        <mxCell id="i_I40cN8ErkJ-4RmTXFp-71" value="Optimizer" style="rounded=0;whiteSpace=wrap;html=1;" vertex="1" parent="1">
          <mxGeometry x="580" y="745.5" width="120" height="60" as="geometry" />
        </mxCell>
        <mxCell id="i_I40cN8ErkJ-4RmTXFp-72" value="" style="shape=flexArrow;endArrow=classic;html=1;rounded=0;" edge="1" parent="1">
          <mxGeometry width="50" height="50" relative="1" as="geometry">
            <mxPoint x="475" y="775.16" as="sourcePoint" />
            <mxPoint x="565" y="775.16" as="targetPoint" />
          </mxGeometry>
        </mxCell>
        <mxCell id="i_I40cN8ErkJ-4RmTXFp-73" value="Stochastic&amp;nbsp;Gradient Descent (SGD)" style="rounded=0;whiteSpace=wrap;html=1;" vertex="1" parent="1">
          <mxGeometry x="340" y="835.5" width="120" height="60" as="geometry" />
        </mxCell>
        <mxCell id="i_I40cN8ErkJ-4RmTXFp-74" value="Optimizer" style="rounded=0;whiteSpace=wrap;html=1;" vertex="1" parent="1">
          <mxGeometry x="580" y="835.5" width="120" height="60" as="geometry" />
        </mxCell>
        <mxCell id="i_I40cN8ErkJ-4RmTXFp-75" value="" style="shape=flexArrow;endArrow=classic;html=1;rounded=0;" edge="1" parent="1">
          <mxGeometry width="50" height="50" relative="1" as="geometry">
            <mxPoint x="475" y="865.1599999999999" as="sourcePoint" />
            <mxPoint x="565" y="865.1599999999999" as="targetPoint" />
          </mxGeometry>
        </mxCell>
        <mxCell id="i_I40cN8ErkJ-4RmTXFp-76" value="Adam" style="rounded=0;whiteSpace=wrap;html=1;" vertex="1" parent="1">
          <mxGeometry x="340" y="915.5" width="120" height="60" as="geometry" />
        </mxCell>
        <mxCell id="i_I40cN8ErkJ-4RmTXFp-77" value="Optimizer" style="rounded=0;whiteSpace=wrap;html=1;" vertex="1" parent="1">
          <mxGeometry x="580" y="915.5" width="120" height="60" as="geometry" />
        </mxCell>
        <mxCell id="i_I40cN8ErkJ-4RmTXFp-78" value="" style="shape=flexArrow;endArrow=classic;html=1;rounded=0;" edge="1" parent="1">
          <mxGeometry width="50" height="50" relative="1" as="geometry">
            <mxPoint x="475" y="945.1599999999999" as="sourcePoint" />
            <mxPoint x="565" y="945.1599999999999" as="targetPoint" />
          </mxGeometry>
        </mxCell>
        <mxCell id="i_I40cN8ErkJ-4RmTXFp-79" value="Initializer" style="rounded=0;whiteSpace=wrap;html=1;" vertex="1" parent="1">
          <mxGeometry x="1350" y="258.25" width="120" height="60" as="geometry" />
        </mxCell>
        <mxCell id="i_I40cN8ErkJ-4RmTXFp-80" value="Initializer:" style="text;html=1;strokeColor=none;fillColor=none;align=center;verticalAlign=middle;whiteSpace=wrap;rounded=0;" vertex="1" parent="1">
          <mxGeometry x="890" y="97.25" width="60" height="30" as="geometry" />
        </mxCell>
        <mxCell id="i_I40cN8ErkJ-4RmTXFp-81" style="edgeStyle=orthogonalEdgeStyle;rounded=0;orthogonalLoop=1;jettySize=auto;html=1;entryX=0.5;entryY=1;entryDx=0;entryDy=0;" edge="1" parent="1" source="i_I40cN8ErkJ-4RmTXFp-82" target="i_I40cN8ErkJ-4RmTXFp-83">
          <mxGeometry relative="1" as="geometry" />
        </mxCell>
        <mxCell id="i_I40cN8ErkJ-4RmTXFp-82" value="Initializer" style="rounded=0;whiteSpace=wrap;html=1;" vertex="1" parent="1">
          <mxGeometry x="743.75" y="225.5" width="120" height="60" as="geometry" />
        </mxCell>
        <mxCell id="i_I40cN8ErkJ-4RmTXFp-83" value="Weight" style="rounded=0;whiteSpace=wrap;html=1;" vertex="1" parent="1">
          <mxGeometry x="743.75" y="130.75" width="120" height="60" as="geometry" />
        </mxCell>
        <mxCell id="i_I40cN8ErkJ-4RmTXFp-84" value="" style="shape=flexArrow;endArrow=classic;html=1;rounded=0;" edge="1" parent="1">
          <mxGeometry width="50" height="50" relative="1" as="geometry">
            <mxPoint x="876.25" y="255.09" as="sourcePoint" />
            <mxPoint x="976.25" y="254.99999999999997" as="targetPoint" />
          </mxGeometry>
        </mxCell>
        <mxCell id="i_I40cN8ErkJ-4RmTXFp-85" value="Randomize algorithm to set the values of a kernel" style="rounded=0;whiteSpace=wrap;html=1;" vertex="1" parent="1">
          <mxGeometry x="996.25" y="225.25" width="120" height="60" as="geometry" />
        </mxCell>
        <mxCell id="i_I40cN8ErkJ-4RmTXFp-86" value="Simple Factory function to initilize matrices" style="text;html=1;strokeColor=none;fillColor=none;align=center;verticalAlign=middle;whiteSpace=wrap;rounded=0;" vertex="1" parent="1">
          <mxGeometry x="760" y="288.5" width="320" height="30" as="geometry" />
        </mxCell>
        <mxCell id="i_I40cN8ErkJ-4RmTXFp-87" value="RandomNormal deviation" style="rounded=0;whiteSpace=wrap;html=1;" vertex="1" parent="1">
          <mxGeometry x="743.75" y="415.5" width="120" height="60" as="geometry" />
        </mxCell>
        <mxCell id="i_I40cN8ErkJ-4RmTXFp-88" value="" style="shape=flexArrow;endArrow=classic;html=1;rounded=0;" edge="1" parent="1">
          <mxGeometry width="50" height="50" relative="1" as="geometry">
            <mxPoint x="876.25" y="445.09000000000003" as="sourcePoint" />
            <mxPoint x="976.25" y="445" as="targetPoint" />
          </mxGeometry>
        </mxCell>
        <mxCell id="i_I40cN8ErkJ-4RmTXFp-89" value="Initializer" style="rounded=0;whiteSpace=wrap;html=1;" vertex="1" parent="1">
          <mxGeometry x="996.25" y="415.25" width="120" height="60" as="geometry" />
        </mxCell>
        <mxCell id="i_I40cN8ErkJ-4RmTXFp-90" value="RandomRange" style="rounded=0;whiteSpace=wrap;html=1;" vertex="1" parent="1">
          <mxGeometry x="744.75" y="330.5" width="120" height="60" as="geometry" />
        </mxCell>
        <mxCell id="i_I40cN8ErkJ-4RmTXFp-91" value="" style="shape=flexArrow;endArrow=classic;html=1;rounded=0;" edge="1" parent="1">
          <mxGeometry width="50" height="50" relative="1" as="geometry">
            <mxPoint x="876.25" y="360.09000000000003" as="sourcePoint" />
            <mxPoint x="976.25" y="360" as="targetPoint" />
          </mxGeometry>
        </mxCell>
        <mxCell id="i_I40cN8ErkJ-4RmTXFp-92" value="Initializer" style="rounded=0;whiteSpace=wrap;html=1;" vertex="1" parent="1">
          <mxGeometry x="996.25" y="330.25" width="120" height="60" as="geometry" />
        </mxCell>
        <mxCell id="i_I40cN8ErkJ-4RmTXFp-93" style="edgeStyle=orthogonalEdgeStyle;rounded=0;orthogonalLoop=1;jettySize=auto;html=1;entryX=0.5;entryY=1;entryDx=0;entryDy=0;" edge="1" parent="1" source="i_I40cN8ErkJ-4RmTXFp-94" target="i_I40cN8ErkJ-4RmTXFp-102">
          <mxGeometry relative="1" as="geometry" />
        </mxCell>
        <mxCell id="i_I40cN8ErkJ-4RmTXFp-94" value="Loss Function" style="rounded=0;whiteSpace=wrap;html=1;" vertex="1" parent="1">
          <mxGeometry x="2060" y="225.25" width="120" height="60" as="geometry" />
        </mxCell>
        <mxCell id="i_I40cN8ErkJ-4RmTXFp-95" value="" style="shape=flexArrow;endArrow=classic;html=1;rounded=0;" edge="1" parent="1">
          <mxGeometry width="50" height="50" relative="1" as="geometry">
            <mxPoint x="2200" y="254.90999999999997" as="sourcePoint" />
            <mxPoint x="2290" y="254.90999999999997" as="targetPoint" />
          </mxGeometry>
        </mxCell>
        <mxCell id="i_I40cN8ErkJ-4RmTXFp-96" value="Is a cost algorithm that uses ilsts of data" style="rounded=0;whiteSpace=wrap;html=1;" vertex="1" parent="1">
          <mxGeometry x="2310" y="225.25" width="120" height="60" as="geometry" />
        </mxCell>
        <mxCell id="i_I40cN8ErkJ-4RmTXFp-97" value="Loss Function" style="text;html=1;strokeColor=none;fillColor=none;align=center;verticalAlign=middle;whiteSpace=wrap;rounded=0;" vertex="1" parent="1">
          <mxGeometry x="2160" y="86.5" width="150" height="30" as="geometry" />
        </mxCell>
        <mxCell id="i_I40cN8ErkJ-4RmTXFp-98" value="MeanSquareError" style="rounded=0;whiteSpace=wrap;html=1;" vertex="1" parent="1">
          <mxGeometry x="2060" y="335.25" width="120" height="60" as="geometry" />
        </mxCell>
        <mxCell id="i_I40cN8ErkJ-4RmTXFp-99" value="" style="shape=flexArrow;endArrow=classic;html=1;rounded=0;" edge="1" parent="1">
          <mxGeometry width="50" height="50" relative="1" as="geometry">
            <mxPoint x="2200" y="364.90999999999997" as="sourcePoint" />
            <mxPoint x="2290" y="364.90999999999997" as="targetPoint" />
          </mxGeometry>
        </mxCell>
        <mxCell id="i_I40cN8ErkJ-4RmTXFp-100" value="Loss Function" style="rounded=0;whiteSpace=wrap;html=1;" vertex="1" parent="1">
          <mxGeometry x="2310" y="335.25" width="120" height="60" as="geometry" />
        </mxCell>
        <mxCell id="i_I40cN8ErkJ-4RmTXFp-101" value="They are not layers, becase the work independently from the model" style="text;html=1;strokeColor=none;fillColor=none;align=center;verticalAlign=middle;whiteSpace=wrap;rounded=0;" vertex="1" parent="1">
          <mxGeometry x="2080" y="300" width="335" height="30" as="geometry" />
        </mxCell>
        <mxCell id="i_I40cN8ErkJ-4RmTXFp-102" value="a list of Input/Output" style="rounded=0;whiteSpace=wrap;html=1;" vertex="1" parent="1">
          <mxGeometry x="2060" y="131.75" width="120" height="60" as="geometry" />
        </mxCell>
        <mxCell id="i_I40cN8ErkJ-4RmTXFp-103" value="BinaryCross-Entropy / LogLoss" style="rounded=0;whiteSpace=wrap;html=1;" vertex="1" parent="1">
          <mxGeometry x="2060" y="411" width="120" height="60" as="geometry" />
        </mxCell>
        <mxCell id="i_I40cN8ErkJ-4RmTXFp-104" value="" style="shape=flexArrow;endArrow=classic;html=1;rounded=0;" edge="1" parent="1">
          <mxGeometry width="50" height="50" relative="1" as="geometry">
            <mxPoint x="2200" y="440.65999999999997" as="sourcePoint" />
            <mxPoint x="2290" y="440.65999999999997" as="targetPoint" />
          </mxGeometry>
        </mxCell>
        <mxCell id="i_I40cN8ErkJ-4RmTXFp-105" value="Loss Function" style="rounded=0;whiteSpace=wrap;html=1;" vertex="1" parent="1">
          <mxGeometry x="2310" y="411" width="120" height="60" as="geometry" />
        </mxCell>
        <mxCell id="i_I40cN8ErkJ-4RmTXFp-106" value="Loss Function" style="rounded=0;whiteSpace=wrap;html=1;" vertex="1" parent="1">
          <mxGeometry x="1590" y="745.5" width="120" height="60" as="geometry" />
        </mxCell>
        <mxCell id="i_I40cN8ErkJ-4RmTXFp-107" value="HingeLoss" style="rounded=0;whiteSpace=wrap;html=1;" vertex="1" parent="1">
          <mxGeometry x="2060" y="500.75" width="120" height="60" as="geometry" />
        </mxCell>
        <mxCell id="i_I40cN8ErkJ-4RmTXFp-108" value="" style="shape=flexArrow;endArrow=classic;html=1;rounded=0;" edge="1" parent="1">
          <mxGeometry width="50" height="50" relative="1" as="geometry">
            <mxPoint x="2200" y="530.41" as="sourcePoint" />
            <mxPoint x="2290" y="530.41" as="targetPoint" />
          </mxGeometry>
        </mxCell>
        <mxCell id="i_I40cN8ErkJ-4RmTXFp-109" value="Loss Function" style="rounded=0;whiteSpace=wrap;html=1;" vertex="1" parent="1">
          <mxGeometry x="2310" y="500.75" width="120" height="60" as="geometry" />
        </mxCell>
        <mxCell id="i_I40cN8ErkJ-4RmTXFp-110" value="Metrics:" style="text;html=1;strokeColor=none;fillColor=none;align=center;verticalAlign=middle;whiteSpace=wrap;rounded=0;" vertex="1" parent="1">
          <mxGeometry x="895.25" y="573" width="80" height="30" as="geometry" />
        </mxCell>
        <mxCell id="i_I40cN8ErkJ-4RmTXFp-111" value="Metrics" style="rounded=0;whiteSpace=wrap;html=1;" vertex="1" parent="1">
          <mxGeometry x="760" y="713" width="120" height="60" as="geometry" />
        </mxCell>
        <mxCell id="i_I40cN8ErkJ-4RmTXFp-112" style="edgeStyle=orthogonalEdgeStyle;rounded=0;orthogonalLoop=1;jettySize=auto;html=1;entryX=0.5;entryY=1;entryDx=0;entryDy=0;exitX=0.5;exitY=0;exitDx=0;exitDy=0;" edge="1" parent="1" source="i_I40cN8ErkJ-4RmTXFp-111" target="i_I40cN8ErkJ-4RmTXFp-113">
          <mxGeometry relative="1" as="geometry">
            <mxPoint x="1004.75" y="660.5" as="targetPoint" />
            <mxPoint x="824.75" y="710.5" as="sourcePoint" />
            <Array as="points">
              <mxPoint x="820" y="673" />
            </Array>
          </mxGeometry>
        </mxCell>
        <mxCell id="i_I40cN8ErkJ-4RmTXFp-113" value="Neural Network model" style="rounded=0;whiteSpace=wrap;html=1;" vertex="1" parent="1">
          <mxGeometry x="760" y="613" width="120" height="60" as="geometry" />
        </mxCell>
        <mxCell id="i_I40cN8ErkJ-4RmTXFp-114" value="" style="shape=flexArrow;endArrow=classic;html=1;rounded=0;" edge="1" parent="1">
          <mxGeometry width="50" height="50" relative="1" as="geometry">
            <mxPoint x="890.25" y="742.5" as="sourcePoint" />
            <mxPoint x="980.25" y="742.5" as="targetPoint" />
          </mxGeometry>
        </mxCell>
        <mxCell id="i_I40cN8ErkJ-4RmTXFp-115" value="To measure how accurate the model is" style="rounded=0;whiteSpace=wrap;html=1;" vertex="1" parent="1">
          <mxGeometry x="995.25" y="713" width="120" height="60" as="geometry" />
        </mxCell>
        <mxCell id="i_I40cN8ErkJ-4RmTXFp-116" value="Accuracy metrics" style="rounded=0;whiteSpace=wrap;html=1;" vertex="1" parent="1">
          <mxGeometry x="760" y="800" width="120" height="60" as="geometry" />
        </mxCell>
        <mxCell id="i_I40cN8ErkJ-4RmTXFp-117" value="" style="shape=flexArrow;endArrow=classic;html=1;rounded=0;" edge="1" parent="1">
          <mxGeometry width="50" height="50" relative="1" as="geometry">
            <mxPoint x="890.25" y="829.5699999999999" as="sourcePoint" />
            <mxPoint x="980.25" y="829.5699999999999" as="targetPoint" />
          </mxGeometry>
        </mxCell>
        <mxCell id="i_I40cN8ErkJ-4RmTXFp-118" value="Metrics" style="rounded=0;whiteSpace=wrap;html=1;" vertex="1" parent="1">
          <mxGeometry x="995.25" y="800" width="120" height="60" as="geometry" />
        </mxCell>
        <mxCell id="i_I40cN8ErkJ-4RmTXFp-119" value="&lt;font style=&quot;font-size: 24px;&quot;&gt;My Conceptual Diagram:&lt;/font&gt;" style="text;html=1;strokeColor=none;fillColor=none;align=center;verticalAlign=middle;whiteSpace=wrap;rounded=0;" vertex="1" parent="1">
          <mxGeometry x="80" y="89.5" width="270" height="30" as="geometry" />
        </mxCell>
      </root>
    </mxGraphModel>
  </diagram>
</mxfile>
